<svg width="1118" height="254" viewBox="0 0 1118 254" fill="none" xmlns="http://www.w3.org/2000/svg">
<path opacity="0.2" d="M1096.89 -438.994C1097.11 -410.285 1097.25 -381.577 1097.32 -352.862L1097.39 -309.797L1097.36 -266.731L1097.18 -223.665L1097.05 -180.6C1097 -166.242 1097.04 -151.891 1097.08 -137.534L1097.18 -94.4684C1097.38 -37.0518 1097.55 20.3712 1097.48 77.7878L1097.43 120.854L1097.29 163.919L1097.14 206.985L1096.89 250.05H1096.76L1096.51 206.985L1096.36 163.919L1096.21 120.854L1096.16 77.7878C1096.1 20.3712 1096.28 -37.0518 1096.47 -94.4684L1096.57 -137.534C1096.6 -151.891 1096.64 -166.242 1096.6 -180.6L1096.46 -223.665L1096.29 -266.731L1096.26 -309.797L1096.33 -352.862C1096.4 -381.571 1096.54 -410.279 1096.76 -438.994H1096.89Z" fill="black"/>
<path opacity="0.2" d="M1054.73 -438.994C1054.95 -410.504 1055.09 -382.007 1055.16 -353.517L1055.23 -310.779L1055.2 -268.041L1055.02 -225.303L1054.89 -182.565C1054.84 -168.316 1054.88 -154.075 1054.92 -139.826L1055.02 -97.0882C1055.22 -40.1018 1055.39 16.8781 1055.32 73.8645L1055.27 116.603L1055.13 159.341L1054.98 202.079L1054.73 244.817H1054.6L1054.35 202.079L1054.2 159.341L1054.05 116.603L1054 73.8645C1053.94 16.8781 1054.12 -40.1018 1054.31 -97.0882L1054.41 -139.826C1054.44 -154.075 1054.48 -168.316 1054.44 -182.565L1054.3 -225.303L1054.13 -268.041L1054.1 -310.779L1054.17 -353.517C1054.24 -382.007 1054.38 -410.504 1054.6 -438.994H1054.73Z" fill="black"/>
<path opacity="0.2" d="M1012.57 -438.994C1012.79 -410.78 1012.93 -382.559 1013 -354.346L1013.07 -312.025L1013.04 -269.704L1012.86 -227.383L1012.73 -185.062C1012.68 -170.955 1012.72 -156.848 1012.76 -142.741L1012.86 -100.421C1013.05 -43.9865 1013.23 12.4413 1013.16 68.8755L1013.11 111.196L1012.97 153.517L1012.82 195.838L1012.57 238.159H1012.44L1012.19 195.838L1012.04 153.517L1011.89 111.196L1011.84 68.8755C1011.78 12.4413 1011.96 -43.9865 1012.15 -100.421L1012.25 -142.741C1012.28 -156.848 1012.32 -170.955 1012.28 -185.062L1012.14 -227.383L1011.97 -269.704L1011.94 -312.025L1012.01 -354.346C1012.08 -382.559 1012.22 -410.78 1012.44 -438.994H1012.57V-438.994Z" fill="black"/>
<path opacity="0.2" d="M970.407 -438.994C970.625 -411.114 970.766 -383.234 970.837 -355.354L970.908 -313.534L970.876 -271.714L970.702 -229.894L970.606 -208.987L970.567 -188.08C970.522 -174.14 970.561 -160.2 970.599 -146.26L970.696 -104.44C970.895 -48.6802 971.068 7.07971 971.004 62.8397L970.953 104.66L970.805 146.48L970.657 188.3L970.407 230.12H970.278L970.028 188.3L969.88 146.48L969.733 104.66L969.681 62.8397C969.617 7.07971 969.797 -48.6802 969.989 -104.44L970.086 -146.26C970.124 -160.2 970.163 -174.14 970.118 -188.08L970.079 -208.987L969.983 -229.894L969.81 -271.714L969.777 -313.534L969.848 -355.354C969.919 -383.234 970.06 -411.114 970.278 -438.994H970.407Z" fill="black"/>
<path opacity="0.2" d="M928.245 -438.994C928.463 -411.499 928.604 -384.004 928.675 -356.503L928.746 -315.261L928.713 -274.019L928.54 -232.777L928.444 -212.153L928.405 -191.528C928.36 -177.781 928.399 -164.034 928.437 -150.286L928.534 -109.044C928.733 -54.0546 928.906 0.941254 928.842 55.9307L928.79 97.1729L928.643 138.415L928.495 179.657L928.245 220.899H928.116L927.866 179.657L927.718 138.415L927.57 97.1729L927.519 55.9307C927.455 0.941254 927.635 -54.0546 927.827 -109.044L927.924 -150.286C927.962 -164.034 928.001 -177.781 927.956 -191.528L927.917 -212.153L927.821 -232.777L927.648 -274.019L927.615 -315.261L927.686 -356.503C927.757 -383.998 927.898 -411.493 928.116 -438.994H928.245V-438.994Z" fill="black"/>
<path opacity="0.2" d="M886.086 -438.994C886.305 -411.936 886.446 -384.884 886.517 -357.826L886.587 -317.245L886.555 -276.664L886.382 -236.084L886.286 -215.793L886.247 -195.503C886.202 -181.974 886.241 -168.445 886.279 -154.922L886.375 -114.341C886.575 -60.2316 886.748 -6.11542 886.684 47.9944L886.632 88.5751L886.485 129.156L886.337 169.737L886.086 210.317H885.958L885.708 169.737L885.56 129.156L885.412 88.5751L885.361 47.9944C885.297 -6.11542 885.476 -60.2316 885.669 -114.341L885.765 -154.922C885.804 -168.451 885.843 -181.98 885.798 -195.503L885.759 -215.793L885.663 -236.084L885.489 -276.664L885.457 -317.245L885.528 -357.826C885.598 -384.884 885.74 -411.936 885.958 -438.994H886.086V-438.994Z" fill="black"/>
<path opacity="0.2" d="M843.93 -438.994C844.149 -412.43 844.29 -385.866 844.36 -359.303L844.431 -319.454L844.399 -279.605L844.226 -239.756L844.129 -219.832L844.091 -199.908C844.046 -186.623 844.084 -173.344 844.123 -160.059L844.219 -120.21C844.418 -67.0829 844.592 -13.9491 844.527 39.1783L844.476 79.027L844.328 118.876L844.181 158.724L843.93 198.573H843.802L843.551 158.724L843.404 118.876L843.256 79.027L843.205 39.1783C843.14 -13.9491 843.32 -67.0829 843.513 -120.21L843.609 -160.059C843.648 -173.344 843.686 -186.623 843.641 -199.908L843.603 -219.832L843.507 -239.756L843.333 -279.605L843.301 -319.454L843.372 -359.303C843.442 -385.866 843.584 -412.43 843.802 -438.994H843.93V-438.994Z" fill="black"/>
<path opacity="0.2" d="M801.772 -438.994C801.99 -412.969 802.132 -386.945 802.202 -360.921L802.273 -321.881L802.241 -282.841L802.067 -243.802L801.971 -224.282L801.933 -204.762C801.888 -191.747 801.926 -178.738 801.965 -165.722L802.061 -126.683C802.26 -74.6339 802.433 -22.5853 802.369 29.4633L802.318 68.503L802.17 107.543L802.022 146.582L801.772 185.622H801.644L801.393 146.582L801.245 107.543L801.098 68.503L801.046 29.4633C800.982 -22.5853 801.162 -74.6339 801.355 -126.683L801.451 -165.722C801.49 -178.738 801.528 -191.747 801.483 -204.762L801.445 -224.282L801.348 -243.802L801.175 -282.841L801.143 -321.881L801.213 -360.921C801.284 -386.945 801.425 -412.969 801.644 -438.994H801.772V-438.994Z" fill="black"/>
<path opacity="0.2" d="M759.612 -438.994C759.83 -413.554 759.971 -388.12 760.042 -362.68L760.113 -324.526L760.081 -286.373L759.907 -248.219L759.811 -229.143L759.772 -210.066C759.727 -197.346 759.766 -184.626 759.805 -171.912L759.901 -133.759C760.1 -82.8849 760.273 -32.0114 760.209 18.8687L760.158 57.0222L760.01 95.1758L759.862 133.329L759.612 171.483H759.483L759.233 133.329L759.085 95.1758L758.938 57.0222L758.886 18.8687C758.822 -32.0049 759.002 -82.8785 759.194 -133.759L759.291 -171.912C759.329 -184.632 759.368 -197.352 759.323 -210.066L759.284 -229.143L759.188 -248.219L759.015 -286.373L758.983 -324.526L759.053 -362.68C759.124 -388.12 759.265 -413.554 759.483 -438.994H759.612V-438.994Z" fill="black"/>
<path opacity="0.2" d="M717.452 -438.994C717.67 -414.189 717.811 -389.385 717.882 -364.581L717.953 -327.371L717.92 -290.161L717.747 -252.952L717.651 -234.35L717.612 -215.748C717.567 -203.343 717.606 -190.944 717.644 -178.539L717.741 -141.329C717.94 -91.7202 718.113 -42.1051 718.049 7.50354L717.997 44.7132L717.85 81.923L717.702 119.133L717.452 156.342H717.323L717.073 119.133L716.925 81.923L716.778 44.7132L716.726 7.50354C716.662 -42.1051 716.842 -91.7202 717.034 -141.329L717.131 -178.539C717.169 -190.944 717.208 -203.343 717.163 -215.748L717.124 -234.35L717.028 -252.952L716.855 -290.161L716.822 -327.371L716.893 -364.581C716.964 -389.385 717.105 -414.189 717.323 -438.994H717.452V-438.994Z" fill="black"/>
<path opacity="0.2" d="M675.291 -438.994C675.51 -414.864 675.651 -390.733 675.722 -366.603L675.792 -330.408L675.76 -294.213L675.587 -258.018L675.491 -239.917L675.452 -221.816C675.407 -209.751 675.446 -197.686 675.484 -185.621L675.58 -149.426C675.78 -101.166 675.953 -52.9053 675.889 -4.64502L675.837 31.5501L675.69 67.7453L675.542 103.94L675.291 140.136H675.163L674.913 103.94L674.765 67.7453L674.617 31.5501L674.566 -4.64502C674.502 -52.9053 674.682 -101.166 674.874 -149.426L674.97 -185.621C675.009 -197.686 675.048 -209.751 675.003 -221.816L674.964 -239.917L674.868 -258.018L674.694 -294.213L674.662 -330.408L674.733 -366.603C674.803 -390.733 674.945 -414.864 675.163 -438.994H675.291V-438.994Z" fill="black"/>
<path opacity="0.2" d="M633.129 -438.994C633.348 -415.583 633.489 -392.165 633.56 -368.754L633.63 -333.631L633.598 -298.509L633.425 -263.386L633.329 -245.824L633.29 -228.263C633.245 -216.557 633.284 -204.852 633.322 -193.14L633.418 -158.017C633.617 -111.189 633.791 -64.3603 633.727 -17.532L633.675 17.5909L633.528 52.7138L633.38 87.8367L633.129 122.96H633.001L632.751 87.8367L632.603 52.7138L632.455 17.5909L632.404 -17.532C632.34 -64.3603 632.519 -111.189 632.712 -158.017L632.808 -193.14C632.847 -204.845 632.885 -216.551 632.841 -228.263L632.802 -245.824L632.706 -263.386L632.532 -298.509L632.5 -333.631L632.571 -368.754C632.641 -392.165 632.783 -415.583 633.001 -438.994H633.129V-438.994Z" fill="black"/>
<path opacity="0.2" d="M590.971 -438.994C591.189 -416.334 591.33 -393.674 591.401 -371.015L591.472 -337.028L591.439 -303.042L591.266 -269.055L591.17 -252.059L591.131 -235.063C591.067 -212.403 591.157 -189.743 591.26 -167.084C591.459 -121.764 591.632 -76.4447 591.568 -31.1252L591.516 2.86111L591.375 36.8539L591.228 70.8402L590.977 104.827H590.849L590.598 70.8402L590.451 36.8539L590.303 2.86755L590.252 -31.1188C590.187 -76.4383 590.367 -121.758 590.56 -167.077C590.662 -189.737 590.752 -212.397 590.688 -235.056L590.65 -252.053L590.553 -269.049L590.38 -303.035L590.348 -337.022L590.418 -371.008C590.489 -393.668 590.63 -416.328 590.849 -438.987H590.971V-438.994Z" fill="black"/>
<path opacity="0.2" d="M548.815 -438.994C549.033 -417.124 549.175 -395.26 549.245 -373.39L549.316 -340.592L549.284 -307.793L549.11 -274.995L549.014 -258.596L548.975 -242.196C548.911 -220.326 549.001 -198.463 549.104 -176.593C549.303 -132.86 549.476 -89.1197 549.412 -45.3863L549.361 -12.5878L549.213 20.2106L549.065 53.0091L548.815 85.8076H548.687L548.436 53.0091L548.288 20.2106L548.141 -12.5878L548.089 -45.3863C548.025 -89.1197 548.205 -132.86 548.398 -176.593C548.5 -198.463 548.59 -220.326 548.526 -242.196L548.488 -258.596L548.391 -274.995L548.218 -307.793L548.186 -340.592L548.256 -373.39C548.327 -395.26 548.468 -417.124 548.687 -438.994H548.815V-438.994Z" fill="black"/>
<path opacity="0.2" d="M506.655 -438.994C506.874 -417.952 507.015 -396.91 507.086 -375.869L507.156 -344.31L507.124 -312.75L506.951 -281.191L506.854 -265.408L506.816 -249.625C506.752 -228.584 506.842 -207.542 506.944 -186.501C507.143 -144.417 507.317 -102.334 507.253 -60.2509L507.201 -28.6917L507.054 2.86755L506.906 34.4267L506.655 65.986H506.527L506.277 34.4267L506.129 2.86755L505.975 -28.6853L505.923 -60.2445C505.859 -102.328 506.039 -144.411 506.232 -186.494C506.334 -207.536 506.424 -228.577 506.36 -249.619L506.322 -265.402L506.225 -281.185L506.052 -312.744L506.02 -344.303L506.09 -375.862C506.161 -396.904 506.302 -417.946 506.521 -438.987H506.655V-438.994Z" fill="black"/>
<path opacity="0.2" d="M464.497 -438.994C464.715 -418.812 464.856 -398.631 464.927 -378.45L464.997 -348.175C465.03 -338.081 464.972 -327.994 464.965 -317.9L464.792 -287.625L464.696 -272.491L464.657 -257.356C464.593 -237.175 464.683 -216.994 464.786 -196.813C464.985 -156.45 465.158 -116.082 465.094 -75.7191L465.042 -45.4441L464.895 -15.1691L464.747 15.106L464.497 45.381H464.368L464.118 15.106L463.97 -15.1691L463.822 -45.4441L463.771 -75.7191C463.707 -116.082 463.887 -156.45 464.079 -196.813C464.182 -216.994 464.272 -237.175 464.208 -257.356L464.169 -272.491L464.073 -287.625L463.899 -317.9C463.893 -327.994 463.835 -338.081 463.867 -348.175L463.938 -378.45C464.009 -398.631 464.15 -418.812 464.368 -438.994H464.497V-438.994Z" fill="black"/>
<path opacity="0.2" d="M422.335 -438.994C422.553 -419.699 422.694 -400.403 422.765 -381.115L422.835 -352.175C422.867 -342.531 422.81 -332.88 422.803 -323.236L422.63 -294.296L422.534 -279.823L422.495 -265.351C422.431 -246.055 422.521 -226.76 422.623 -207.472C422.823 -168.881 422.996 -130.298 422.932 -91.7074C422.912 -53.1172 422.733 -14.5334 422.335 24.0569H422.206C421.808 -14.5334 421.628 -53.1172 421.609 -91.7074C421.545 -130.298 421.725 -168.881 421.917 -207.472C422.02 -226.767 422.11 -246.062 422.046 -265.351L422.007 -279.823L421.911 -294.296L421.737 -323.236C421.731 -332.88 421.673 -342.531 421.705 -352.175L421.776 -381.115C421.847 -400.41 421.988 -419.705 422.206 -438.994H422.335V-438.994Z" fill="black"/>
<path opacity="0.2" d="M1117.97 -438.994C1118.19 -410.195 1118.33 -381.404 1118.4 -352.606L1118.47 -309.411L1118.44 -266.217L1118.26 -223.023L1118.13 -179.829C1118.08 -165.433 1118.12 -151.031 1118.16 -136.635L1118.26 -93.4411C1118.46 -35.8511 1118.63 21.7453 1118.56 79.3352L1118.51 122.529L1118.37 165.723L1118.22 208.917L1117.97 252.112H1117.84L1117.59 208.917L1117.44 165.723L1117.29 122.529L1117.24 79.3352C1117.18 21.7453 1117.36 -35.8511 1117.55 -93.4411L1117.65 -136.635C1117.68 -151.031 1117.72 -165.433 1117.68 -179.829L1117.54 -223.023L1117.37 -266.217L1117.34 -309.411L1117.41 -352.606C1117.48 -381.404 1117.62 -410.195 1117.84 -438.994H1117.97V-438.994Z" fill="black"/>
<path opacity="0.2" d="M1075.81 -438.994C1076.03 -410.395 1076.17 -381.802 1076.24 -353.203L1076.31 -310.31L1076.28 -267.418L1076.1 -224.526L1075.97 -181.633C1075.92 -167.334 1075.96 -153.034 1076 -138.741L1076.1 -95.8489C1076.3 -38.6571 1076.47 18.5348 1076.4 75.7267L1076.35 118.619L1076.21 161.511L1076.06 204.404L1075.81 247.296H1075.68L1075.43 204.404L1075.28 161.511L1075.13 118.619L1075.08 75.7267C1075.02 18.5348 1075.2 -38.6571 1075.39 -95.8489L1075.49 -138.741C1075.52 -153.041 1075.56 -167.34 1075.52 -181.633L1075.38 -224.526L1075.21 -267.418L1075.18 -310.31L1075.25 -353.203C1075.32 -381.802 1075.46 -410.395 1075.68 -438.994H1075.81Z" fill="black"/>
<path opacity="0.2" d="M1033.65 -438.994C1033.87 -410.632 1034.01 -382.271 1034.08 -353.909L1034.15 -311.37L1034.12 -268.831L1033.94 -226.292L1033.81 -183.752C1033.76 -169.575 1033.8 -155.391 1033.84 -141.213L1033.94 -98.6742C1034.14 -41.951 1034.31 14.7721 1034.24 71.4952L1034.19 114.034L1034.05 156.573L1033.9 199.113L1033.65 241.652H1033.52L1033.27 199.113L1033.12 156.573L1032.97 114.034L1032.92 71.4952C1032.86 14.7721 1033.04 -41.951 1033.23 -98.6742L1033.33 -141.213C1033.36 -155.391 1033.4 -169.575 1033.36 -183.752L1033.22 -226.292L1033.05 -268.831L1033.02 -311.37L1033.09 -353.909C1033.16 -382.271 1033.3 -410.632 1033.52 -438.994H1033.65Z" fill="black"/>
<path opacity="0.2" d="M991.487 -438.994C991.705 -410.94 991.846 -382.881 991.917 -354.827L991.988 -312.744L991.956 -270.661L991.782 -228.577L991.647 -186.494C991.602 -172.464 991.641 -158.441 991.68 -144.411L991.776 -102.328C991.975 -46.2146 992.148 9.89856 992.084 66.0117L992.033 108.095L991.885 150.178L991.737 192.261L991.487 234.345H991.358L991.108 192.261L990.96 150.178L990.813 108.095L990.761 66.0117C990.697 9.89856 990.877 -46.2146 991.069 -102.328L991.166 -144.411C991.204 -158.441 991.243 -172.471 991.198 -186.494L991.063 -228.577L990.89 -270.661L990.858 -312.744L990.928 -354.827C990.999 -382.887 991.14 -410.94 991.358 -438.994H991.487V-438.994Z" fill="black"/>
<path opacity="0.2" d="M949.327 -438.994C949.545 -411.3 949.686 -383.6 949.757 -355.906L949.828 -314.362L949.795 -272.818L949.622 -231.274L949.526 -210.502L949.487 -189.73C949.442 -175.88 949.481 -162.037 949.519 -148.186L949.616 -106.643C949.815 -51.2487 949.988 4.14536 949.924 59.5329L949.872 101.077L949.725 142.621L949.577 184.165L949.327 225.708H949.198L948.948 184.165L948.8 142.621L948.653 101.077L948.601 59.5329C948.537 4.13895 948.717 -51.2551 948.909 -106.643L949.006 -148.186C949.044 -162.037 949.083 -175.88 949.038 -189.73L948.999 -210.502L948.903 -231.274L948.73 -272.818L948.697 -314.362L948.768 -355.906C948.839 -383.6 948.98 -411.3 949.198 -438.994H949.327V-438.994Z" fill="black"/>
<path opacity="0.2" d="M907.167 -438.994C907.385 -411.711 907.526 -384.428 907.597 -357.145L907.667 -316.224L907.635 -275.303L907.462 -234.382L907.366 -213.918L907.327 -193.455C907.282 -179.816 907.321 -166.172 907.359 -152.534L907.455 -111.612C907.655 -57.0468 907.828 -2.48114 907.764 52.0845L907.712 93.0056L907.565 133.927L907.417 174.848L907.167 215.769H907.038L906.788 174.848L906.64 133.927L906.492 93.0056L906.441 52.0845C906.377 -2.48114 906.557 -57.0468 906.749 -111.612L906.846 -152.534C906.884 -166.172 906.923 -179.816 906.878 -193.455L906.839 -213.918L906.743 -234.382L906.569 -275.303L906.537 -316.224L906.608 -357.145C906.678 -384.428 906.82 -411.711 907.038 -438.994H907.167V-438.994Z" fill="black"/>
<path opacity="0.2" d="M865.012 -438.994C865.231 -412.18 865.372 -385.359 865.442 -358.545L865.513 -318.317L865.481 -278.09L865.308 -237.862L865.211 -217.752L865.173 -197.641C865.128 -184.234 865.166 -170.827 865.205 -157.413L865.301 -117.186C865.5 -63.5513 865.674 -9.91663 865.609 43.7116L865.558 83.9391L865.41 124.167L865.263 164.394L865.012 204.622H864.884L864.633 164.394L864.486 124.167L864.338 83.9391L864.287 43.7116C864.222 -9.92307 864.402 -63.5577 864.595 -117.186L864.691 -157.413C864.73 -170.821 864.768 -184.228 864.723 -197.641L864.685 -217.752L864.588 -237.862L864.415 -278.09L864.383 -318.317L864.454 -358.545C864.524 -385.359 864.665 -412.18 864.884 -438.994H865.012V-438.994Z" fill="black"/>
<path opacity="0.2" d="M822.852 -438.994C823.07 -412.693 823.212 -386.393 823.282 -360.092L823.353 -320.642L823.321 -281.191L823.147 -241.74L823.051 -222.015L823.013 -202.29C822.968 -189.14 823.006 -175.989 823.045 -162.839L823.141 -123.389C823.34 -70.7878 823.514 -18.1869 823.449 34.414L823.398 73.8646L823.25 113.315L823.103 152.766L822.852 192.216H822.724L822.473 152.766L822.326 113.315L822.178 73.8646L822.127 34.414C822.062 -18.1869 822.242 -70.7878 822.435 -123.389L822.531 -162.839C822.57 -175.989 822.608 -189.14 822.563 -202.29L822.525 -222.015L822.428 -241.74L822.255 -281.191L822.223 -320.642L822.293 -360.092C822.364 -386.393 822.505 -412.693 822.724 -438.994H822.852V-438.994Z" fill="black"/>
<path opacity="0.2" d="M780.69 -438.994C780.908 -413.245 781.05 -387.504 781.12 -361.755L781.191 -323.14L781.159 -284.524L780.985 -245.908L780.889 -226.6L780.851 -207.292C780.806 -194.418 780.844 -181.544 780.883 -168.676L780.979 -130.06C781.178 -78.57 781.351 -27.08 781.287 24.41L781.236 63.0259L781.088 101.642L780.94 140.258L780.69 178.874H780.562L780.311 140.258L780.164 101.642L780.016 63.0259L779.964 24.41C779.9 -27.08 780.08 -78.57 780.273 -130.06L780.369 -168.676C780.407 -181.55 780.446 -194.424 780.401 -207.292L780.363 -226.6L780.266 -245.908L780.093 -284.524L780.061 -323.14L780.131 -361.755C780.202 -387.504 780.343 -413.245 780.562 -438.994H780.69Z" fill="black"/>
<path opacity="0.2" d="M738.532 -438.994C738.75 -413.868 738.891 -388.743 738.962 -363.611L739.033 -325.92L739.001 -288.229L738.827 -250.537L738.731 -231.692L738.692 -212.846C738.647 -200.28 738.686 -187.721 738.724 -175.155L738.821 -137.463C739.02 -87.2126 739.193 -36.9554 739.129 13.2953L739.078 50.9866L738.93 88.6779L738.782 126.369L738.532 164.06H738.403L738.153 126.369L738.005 88.6779L737.858 50.9866L737.806 13.2953C737.742 -36.9554 737.922 -87.2126 738.114 -137.463L738.211 -175.155C738.249 -187.721 738.288 -200.28 738.243 -212.846L738.204 -231.692L738.108 -250.537L737.935 -288.229L737.902 -325.92L737.973 -363.611C738.044 -388.736 738.185 -413.862 738.403 -438.994H738.532V-438.994Z" fill="black"/>
<path opacity="0.2" d="M696.372 -438.994C696.59 -414.523 696.731 -390.046 696.802 -365.576L696.873 -328.867L696.84 -292.158L696.667 -255.449L696.571 -237.092L696.532 -218.734C696.487 -206.496 696.526 -194.264 696.564 -182.025L696.661 -145.316C696.86 -96.369 697.033 -47.4217 696.969 1.51917L696.917 38.228L696.77 74.9369L696.622 111.646L696.372 148.355H696.243L695.993 111.646L695.845 74.9369L695.697 38.228L695.646 1.51917C695.582 -47.4281 695.762 -96.3754 695.954 -145.316L696.051 -182.025C696.089 -194.264 696.128 -206.496 696.083 -218.734L696.044 -237.092L695.948 -255.449L695.774 -292.158L695.742 -328.867L695.813 -365.576C695.884 -390.046 696.025 -414.523 696.243 -438.994H696.372V-438.994Z" fill="black"/>
<path opacity="0.2" d="M654.211 -438.994C654.43 -415.217 654.571 -391.44 654.642 -367.663L654.712 -331.994L654.68 -296.325L654.507 -260.657L654.411 -242.826L654.372 -224.995C654.327 -213.103 654.366 -201.218 654.404 -189.326L654.5 -153.657C654.699 -106.103 654.873 -58.5493 654.809 -10.9954L654.757 24.6732L654.61 60.3419L654.462 96.0106L654.211 131.679H654.083L653.833 96.0106L653.685 60.3419L653.537 24.6732L653.486 -10.9954C653.422 -58.5493 653.602 -106.103 653.794 -153.657L653.89 -189.326C653.929 -201.218 653.967 -213.103 653.923 -224.995L653.884 -242.826L653.788 -260.657L653.614 -296.325L653.582 -331.994L653.653 -367.663C653.723 -391.44 653.865 -415.217 654.083 -438.994H654.211V-438.994Z" fill="black"/>
<path opacity="0.2" d="M612.051 -438.994C612.27 -415.955 612.411 -392.91 612.482 -369.872L612.552 -335.307L612.52 -300.743L612.347 -266.179L612.25 -248.9L612.212 -231.621C612.167 -220.102 612.205 -208.582 612.244 -197.057L612.34 -162.493C612.539 -116.409 612.713 -70.3255 612.648 -24.2419L612.597 10.3223L612.449 44.8866L612.302 79.4508L612.051 114.015H611.923L611.672 79.4508L611.525 44.8866L611.377 10.3223L611.326 -24.2419C611.262 -70.3255 611.441 -116.409 611.634 -162.493L611.73 -197.057C611.769 -208.576 611.807 -220.095 611.762 -231.621L611.724 -248.9L611.628 -266.179L611.454 -300.743L611.422 -335.307L611.493 -369.872C611.57 -392.91 611.705 -415.955 611.923 -438.994H612.051Z" fill="black"/>
<path opacity="0.2" d="M569.889 -438.994C570.108 -416.726 570.249 -394.458 570.319 -372.19L570.39 -338.788L570.358 -305.385L570.185 -271.983L570.088 -255.282L570.05 -238.581C569.986 -216.313 570.075 -194.045 570.178 -171.777C570.377 -127.241 570.551 -82.7051 570.486 -38.1691L570.435 -4.767L570.287 28.6351L570.14 62.0371L569.889 95.4391H569.761L569.51 62.0371L569.363 28.6351L569.215 -4.767L569.164 -38.1691C569.099 -82.7051 569.279 -127.241 569.472 -171.777C569.575 -194.045 569.665 -216.313 569.6 -238.581L569.562 -255.282L569.465 -271.983L569.292 -305.385L569.26 -338.788L569.331 -372.19C569.408 -394.458 569.542 -416.726 569.767 -438.994H569.889Z" fill="black"/>
<path opacity="0.2" d="M527.737 -438.994C527.955 -417.535 528.096 -396.076 528.167 -374.617L528.238 -342.428L528.206 -310.24L528.032 -278.051L527.936 -261.96L527.897 -245.869C527.833 -224.41 527.923 -202.951 528.026 -181.492C528.225 -138.574 528.398 -95.6563 528.334 -52.7383L528.283 -20.5498L528.135 11.6386L527.987 43.8271L527.737 76.0156H527.608L527.358 43.8271L527.21 11.6386L527.063 -20.5498L527.011 -52.7383C526.947 -95.6563 527.127 -138.574 527.319 -181.492C527.422 -202.951 527.512 -224.41 527.448 -245.869L527.409 -261.96L527.313 -278.051L527.14 -310.24L527.108 -342.428L527.178 -374.617C527.249 -396.076 527.39 -417.535 527.608 -438.994H527.737V-438.994Z" fill="black"/>
<path opacity="0.2" d="M485.575 -438.994C485.793 -418.376 485.934 -397.764 486.005 -377.147L486.076 -346.223L486.044 -315.299L485.87 -284.376L485.774 -268.914L485.735 -253.452C485.671 -232.835 485.761 -212.223 485.864 -191.605C486.063 -150.376 486.236 -109.14 486.172 -67.9111L486.121 -36.9876L485.973 -6.06406L485.825 24.8595L485.575 55.7831H485.446L485.196 24.8595L485.048 -6.06406L484.901 -36.9876L484.849 -67.9111C484.785 -109.14 484.965 -150.376 485.157 -191.605C485.26 -212.223 485.35 -232.835 485.286 -253.452L485.247 -268.914L485.151 -284.376L484.978 -315.299L484.946 -346.223L485.016 -377.147C485.087 -397.764 485.228 -418.376 485.446 -438.994H485.575V-438.994Z" fill="black"/>
<path opacity="0.2" d="M443.415 -438.994C443.633 -419.249 443.774 -399.511 443.845 -379.766L443.915 -350.153C443.948 -340.284 443.89 -330.408 443.883 -320.539L443.71 -290.925L443.614 -276.119L443.575 -261.312C443.511 -241.567 443.601 -221.829 443.704 -202.084C443.903 -162.602 444.076 -123.119 444.012 -83.6298C443.992 -44.147 443.813 -4.66431 443.415 34.8248H443.286C442.888 -4.6579 442.708 -44.1406 442.689 -83.6298C442.625 -123.113 442.805 -162.595 442.997 -202.084C443.1 -221.829 443.19 -241.567 443.126 -261.312L443.087 -276.119L442.991 -290.925L442.817 -320.539C442.811 -330.408 442.753 -340.284 442.785 -350.153L442.856 -379.766C442.927 -399.511 443.068 -419.249 443.286 -438.994H443.415V-438.994Z" fill="black"/>
<path opacity="0.2" d="M401.254 -438.994C401.473 -420.174 401.614 -401.36 401.685 -382.54L401.755 -354.313C401.787 -344.907 401.73 -335.494 401.723 -326.087L401.55 -297.86L401.453 -283.747L401.415 -269.633C401.351 -250.813 401.441 -232 401.543 -213.18C401.742 -175.546 401.916 -137.913 401.852 -100.279C401.832 -62.6459 401.653 -25.0125 401.254 12.621H401.126C400.728 -25.0125 400.548 -62.6459 400.529 -100.279C400.465 -137.913 400.644 -175.546 400.837 -213.18C400.94 -232 401.03 -250.813 400.966 -269.633L400.927 -283.747L400.831 -297.86L400.657 -326.087C400.651 -335.494 400.593 -344.907 400.625 -354.313L400.696 -382.54C400.766 -401.36 400.908 -420.174 401.126 -438.994H401.254V-438.994Z" fill="black"/>
<path opacity="0.2" d="M1086.86 -438.994C1087.08 -418.909 1087.22 -398.824 1087.29 -378.739L1087.36 -348.612C1087.4 -338.569 1087.34 -328.527 1087.33 -318.484L1087.16 -288.357L1087.06 -273.293L1087.02 -258.23C1086.96 -238.145 1087.05 -218.06 1087.15 -197.975C1087.35 -157.805 1087.53 -117.635 1087.46 -77.4592L1087.41 -47.3318L1087.26 -17.2045L1087.11 12.9229L1086.86 43.0502H1086.74L1086.48 12.9229L1086.34 -17.2045L1086.19 -47.3318L1086.14 -77.4592C1086.07 -117.629 1086.25 -157.799 1086.45 -197.975C1086.55 -218.06 1086.64 -238.145 1086.57 -258.23L1086.54 -273.293L1086.44 -288.357L1086.27 -318.484C1086.26 -328.527 1086.2 -338.569 1086.23 -348.612L1086.31 -378.739C1086.38 -398.824 1086.52 -418.909 1086.74 -438.994H1086.86V-438.994Z" fill="black"/>
<path opacity="0.2" d="M1044.7 -438.994C1044.92 -419.127 1045.06 -399.26 1045.13 -379.388L1045.2 -349.588C1045.24 -339.654 1045.18 -329.721 1045.17 -319.788L1045 -289.988L1044.9 -275.085L1044.86 -260.182C1044.8 -240.315 1044.89 -220.448 1044.99 -200.575C1045.19 -160.842 1045.36 -121.103 1045.3 -81.3696C1045.28 -41.6364 1045.1 -1.89685 1044.7 37.8363H1044.58C1044.18 -1.89685 1044 -41.6364 1043.98 -81.3696C1043.91 -121.103 1044.09 -160.842 1044.29 -200.575C1044.39 -220.442 1044.48 -240.309 1044.41 -260.182L1044.38 -275.085L1044.28 -289.988L1044.11 -319.788C1044.1 -329.721 1044.04 -339.654 1044.07 -349.588L1044.15 -379.388C1044.22 -399.254 1044.36 -419.121 1044.58 -438.994H1044.7V-438.994Z" fill="black"/>
<path opacity="0.2" d="M1002.54 -438.994C1002.76 -419.403 1002.9 -399.813 1002.97 -380.216L1003.04 -350.827C1003.08 -341.028 1003.02 -331.236 1003.01 -321.438L1002.84 -292.049L1002.74 -277.358L1002.7 -262.667C1002.64 -243.076 1002.73 -223.486 1002.83 -203.889C1003.03 -164.708 1003.2 -125.52 1003.14 -86.3394C1003.12 -47.1585 1002.94 -7.9711 1002.54 31.2099H1002.42C1002.02 -7.9711 1001.84 -47.1585 1001.82 -86.3394C1001.75 -125.52 1001.93 -164.708 1002.13 -203.889C1002.23 -223.479 1002.32 -243.07 1002.25 -262.667L1002.22 -277.358L1002.12 -292.049L1001.95 -321.438C1001.94 -331.236 1001.88 -341.028 1001.91 -350.827L1001.98 -380.216C1002.06 -399.806 1002.2 -419.397 1002.42 -438.994H1002.54V-438.994Z" fill="black"/>
<path opacity="0.2" d="M960.383 -438.994C960.602 -419.737 960.743 -400.48 960.814 -381.224L960.884 -352.342C960.916 -342.717 960.859 -333.086 960.852 -323.461L960.679 -294.579L960.582 -280.138L960.544 -265.697C960.48 -246.441 960.57 -227.184 960.672 -207.928C960.871 -169.414 961.045 -130.908 960.98 -92.3944C960.961 -53.8813 960.781 -15.3745 960.383 23.1386H960.255C959.857 -15.3745 959.677 -53.8813 959.658 -92.3944C959.594 -130.908 959.773 -169.414 959.966 -207.928C960.069 -227.184 960.159 -246.441 960.094 -265.697L960.056 -280.138L959.96 -294.579L959.786 -323.461C959.78 -333.086 959.722 -342.717 959.754 -352.342L959.825 -381.224C959.895 -400.48 960.037 -419.737 960.255 -438.994H960.383Z" fill="black"/>
<path opacity="0.2" d="M918.223 -438.994C918.442 -420.122 918.583 -401.251 918.653 -382.38L918.724 -354.069C918.756 -344.631 918.698 -335.198 918.692 -325.759L918.519 -297.449L918.422 -283.297L918.384 -269.145C918.32 -250.274 918.409 -231.403 918.512 -212.531C918.711 -174.789 918.885 -137.04 918.82 -99.297C918.801 -61.5544 918.621 -23.8117 918.223 13.9374H918.095C917.697 -23.8053 917.517 -61.5544 917.498 -99.297C917.433 -137.04 917.613 -174.789 917.806 -212.531C917.909 -231.403 917.998 -250.274 917.934 -269.145L917.896 -283.297L917.799 -297.449L917.626 -325.759C917.62 -335.198 917.562 -344.631 917.594 -354.069L917.665 -382.38C917.735 -401.251 917.876 -420.122 918.095 -438.994H918.223V-438.994Z" fill="black"/>
<path opacity="0.2" d="M876.063 -438.994C876.281 -420.559 876.423 -402.131 876.493 -383.696L876.564 -356.047C876.596 -346.833 876.538 -337.612 876.532 -328.398L876.358 -300.749L876.262 -286.925L876.224 -273.101C876.159 -254.666 876.249 -236.238 876.352 -217.803C876.551 -180.94 876.724 -144.077 876.66 -107.214C876.641 -70.3511 876.461 -33.4881 876.063 3.37482H875.935C875.537 -33.4881 875.357 -70.3511 875.337 -107.214C875.273 -144.077 875.453 -180.94 875.646 -217.803C875.748 -236.238 875.838 -254.666 875.774 -273.101L875.736 -286.925L875.639 -300.749L875.466 -328.398C875.459 -337.612 875.402 -346.833 875.434 -356.047L875.504 -383.696C875.575 -402.131 875.716 -420.559 875.935 -438.994H876.063Z" fill="black"/>
<path opacity="0.2" d="M1107.94 -438.994C1108.16 -418.819 1108.3 -398.651 1108.37 -378.476L1108.44 -348.22C1108.48 -338.133 1108.42 -328.045 1108.41 -317.964L1108.24 -287.708L1108.14 -272.581L1108.1 -257.453C1108.04 -237.278 1108.13 -217.11 1108.23 -196.935C1108.43 -156.592 1108.61 -116.248 1108.54 -75.9053L1108.49 -45.6495L1108.34 -15.3938L1108.19 14.862L1107.94 45.1177H1107.82L1107.57 14.862L1107.42 -15.3938L1107.27 -45.6495L1107.22 -75.9053C1107.15 -116.248 1107.33 -156.592 1107.53 -196.935C1107.63 -217.11 1107.72 -237.278 1107.65 -257.453L1107.62 -272.581L1107.52 -287.708L1107.35 -317.964C1107.34 -328.052 1107.28 -338.139 1107.31 -348.22L1107.39 -378.476C1107.46 -398.651 1107.6 -418.819 1107.82 -438.994H1107.94Z" fill="black"/>
<path opacity="0.2" d="M1065.79 -438.994C1066 -419.024 1066.15 -399.049 1066.22 -379.079L1066.29 -349.119C1066.32 -339.134 1066.26 -329.15 1066.25 -319.159L1066.08 -289.198L1065.98 -274.218L1065.95 -259.238C1065.88 -239.268 1065.97 -219.293 1066.07 -199.323C1066.27 -159.378 1066.45 -119.433 1066.38 -79.4882C1066.36 -39.5432 1066.18 0.401917 1065.79 40.347H1065.66C1065.26 0.401917 1065.08 -39.5432 1065.06 -79.4882C1065 -119.433 1065.18 -159.378 1065.37 -199.323C1065.47 -219.293 1065.56 -239.268 1065.5 -259.238L1065.46 -274.218L1065.36 -289.198L1065.19 -319.159C1065.18 -329.143 1065.12 -339.128 1065.16 -349.119L1065.23 -379.079C1065.3 -399.049 1065.44 -419.024 1065.66 -438.994H1065.79V-438.994Z" fill="black"/>
<path opacity="0.2" d="M1023.62 -438.994C1023.84 -419.255 1023.98 -399.517 1024.05 -379.779L1024.12 -350.172C1024.16 -340.303 1024.1 -330.434 1024.09 -320.565L1023.92 -290.957L1023.82 -276.157L1023.78 -261.357C1023.72 -241.619 1023.81 -221.88 1023.91 -202.142C1024.11 -162.666 1024.28 -123.196 1024.22 -83.7197C1024.2 -44.2434 1024.02 -4.77347 1023.62 34.7029H1023.5C1023.1 -4.77347 1022.92 -44.2434 1022.9 -83.7197C1022.83 -123.196 1023.01 -162.666 1023.21 -202.142C1023.31 -221.88 1023.4 -241.619 1023.33 -261.357L1023.3 -276.157L1023.2 -290.957L1023.03 -320.565C1023.02 -330.434 1022.96 -340.303 1022.99 -350.172L1023.06 -379.779C1023.14 -399.517 1023.28 -419.255 1023.5 -438.994H1023.62V-438.994Z" fill="black"/>
<path opacity="0.2" d="M981.463 -438.994C981.682 -419.564 981.823 -400.127 981.894 -380.697L981.964 -351.546C981.996 -341.831 981.939 -332.116 981.932 -322.395L981.759 -293.243L981.662 -278.668L981.624 -264.092C981.56 -244.662 981.65 -225.226 981.752 -205.796C981.951 -166.929 982.125 -128.063 982.061 -89.1967C982.041 -50.3304 981.862 -11.4641 981.463 27.4022H981.335C980.937 -11.4641 980.757 -50.3304 980.738 -89.1967C980.674 -128.063 980.853 -166.929 981.046 -205.796C981.149 -225.226 981.239 -244.662 981.174 -264.092L981.136 -278.668L981.04 -293.243L980.866 -322.395C980.86 -332.11 980.802 -341.825 980.834 -351.546L980.905 -380.697C980.975 -400.127 981.117 -419.564 981.335 -438.994H981.463V-438.994Z" fill="black"/>
<path opacity="0.2" d="M939.303 -438.994C939.522 -419.923 939.663 -400.846 939.734 -381.776L939.804 -353.171C939.836 -343.635 939.778 -334.1 939.772 -324.565L939.599 -295.959L939.502 -281.653L939.464 -267.347C939.4 -248.277 939.49 -229.2 939.592 -210.13C939.791 -171.983 939.965 -133.842 939.9 -95.6948C939.881 -57.5477 939.701 -19.4069 939.303 18.7402H939.175C938.777 -19.4069 938.597 -57.5477 938.578 -95.6948C938.513 -133.842 938.693 -171.983 938.886 -210.13C938.989 -229.2 939.079 -248.277 939.014 -267.347L938.976 -281.653L938.879 -295.959L938.706 -324.565C938.7 -334.1 938.642 -343.635 938.674 -353.171L938.745 -381.776C938.815 -400.846 938.957 -419.923 939.175 -438.994H939.303V-438.994Z" fill="black"/>
<path opacity="0.2" d="M897.143 -438.994C897.361 -420.334 897.503 -401.675 897.573 -383.015L897.644 -355.026C897.676 -345.696 897.618 -336.367 897.612 -327.037L897.439 -299.048L897.342 -285.057L897.304 -271.065C897.239 -252.406 897.329 -233.746 897.432 -215.087C897.631 -177.768 897.805 -140.456 897.74 -103.137C897.721 -65.8179 897.541 -28.5055 897.143 8.81339H897.015C896.617 -28.5055 896.437 -65.8179 896.418 -103.137C896.353 -140.456 896.533 -177.768 896.726 -215.087C896.829 -233.746 896.918 -252.406 896.854 -271.065L896.816 -285.057L896.719 -299.048L896.546 -327.037C896.54 -336.367 896.482 -345.696 896.514 -355.026L896.585 -383.015C896.655 -401.675 896.796 -420.334 897.015 -438.994H897.143V-438.994Z" fill="black"/>
</svg>
